<?xml version="1.0" encoding="UTF-8" standalone="no"?>
<!DOCTYPE svg PUBLIC "-//W3C//DTD SVG 1.1//EN" "http://www.w3.org/Graphics/SVG/1.1/DTD/svg11.dtd">
<svg width="100%" height="100%" viewBox="0 0 855 195" version="1.1" xmlns="http://www.w3.org/2000/svg" xmlns:xlink="http://www.w3.org/1999/xlink" xml:space="preserve" xmlns:serif="http://www.serif.com/" style="fill-rule:evenodd;clip-rule:evenodd;stroke-linejoin:round;stroke-miterlimit:2;">
    <g transform="matrix(1,0,0,1,-92.778,-407.306)">
        <path d="M945.765,407.306l0.578,0.015c0.806,1.334 0.708,2.208 0.701,3.925c-0.084,20.279 -0.058,40.652 -0.046,60.922l0.003,129.756c-27.262,0.408 -55.224,0.104 -82.53,0.103l-149.235,-0.012c-0.313,-4.01 -2.071,-13.048 -3.051,-17.022l212.19,-0.038l6.557,-0.022c0.387,-18.287 0.079,-37.471 0.079,-55.845l0.002,-104.601l-231.954,0.002l-0.007,-17.082c81.729,-0.357 165.128,1.054 246.713,-0.101Z" style="fill-rule:nonzero;"/>
    </g>
    <g transform="matrix(1,0,0,1,-92.778,-407.306)">
        <path d="M295.695,450.92c6.157,0.347 14.725,0.104 21.065,0.117c0.588,6.549 2.518,16.918 3.603,23.636l8.464,50.918c3.271,-15.793 6.627,-31.569 10.069,-47.326c1.557,-7.218 4.745,-20.19 5.459,-27.199c5.722,-0.096 11.665,-0.021 17.405,-0.027c0.931,3.754 1.767,7.696 2.533,11.488c4.279,21.195 9.98,42.467 13.616,63.771c2.109,-10.496 3.86,-22.305 5.647,-32.948c2.452,-14.051 4.75,-28.127 6.896,-42.228c6.38,-0.302 14.326,-0.085 20.826,-0.074c-1.705,5.755 -4.06,19.215 -5.401,25.575c-5.546,27.345 -10.775,56.282 -17.199,83.359c-6.511,-0.055 -12.95,-0.162 -19.458,0.096c-1.147,-3.705 -2.187,-7.815 -2.919,-11.631c-3.767,-19.646 -9.947,-39.882 -13.063,-59.56c-3.27,15.331 -6.66,30.637 -10.171,45.915c-1.722,7.684 -4.139,17.497 -5.354,25.16c-6.67,-0.051 -13.113,-0.102 -19.781,0.109l-22.237,-109.151Z" style="fill-rule:nonzero;"/>
    </g>
    <g transform="matrix(1,0,0,1,-92.778,-407.306)">
        <path d="M126.629,449.195c8.975,-0.782 20.962,1.714 27.858,7.945c8.131,7.346 10.283,16.414 11.071,26.923l-19.142,-0.011c-1.939,-8.041 -3.906,-15.878 -13.593,-17.144c-12.034,-1.572 -18.897,5.77 -19.647,17.339c-0.347,8.326 -0.194,16.544 -0.198,24.917c-0.004,9.298 -1.211,22.223 4.982,29.851c5.009,6.168 17.634,6.887 23.257,1.283c5.725,-5.705 5.238,-14.383 5.338,-21.855l-18.553,-0.082c0.278,-3.618 -0.348,-15.54 0.651,-17.305l37.362,-0.054c0.459,4.477 0.293,9.238 0.355,13.762c0.166,12.142 -0.229,24.838 -7.899,34.932c-5.684,7.482 -14.525,10.902 -23.599,11.881c-9.866,1.064 -21.624,-0.707 -29.52,-7.137c-7.757,-6.317 -11.168,-16.222 -12.02,-25.898c-0.602,-6.845 -0.594,-15.524 -0.515,-22.531c0.17,-15.026 -1.726,-33.348 8.463,-45.681c6.758,-8.181 15.468,-10.119 25.349,-11.135Z" style="fill-rule:nonzero;"/>
    </g>
    <g transform="matrix(1,0,0,1,-92.778,-407.306)">
        <path d="M602.339,451.03l24.081,0.009c-3.346,3.937 -9.355,13.335 -12.418,17.881l-21.54,31.829l22.888,37.504c4.473,6.948 8.913,14.562 13.21,21.664l-23.788,0.106c-7.779,-14.273 -17.189,-28.84 -25.203,-43.367c-1.001,1.744 -4.599,6.458 -4.804,7.857c-1.472,10.076 -0.761,25.05 -0.745,35.451c-6.881,-0.061 -13.762,-0.053 -20.642,0.025c0.781,-35.148 0.061,-73.57 0.037,-108.96l20.533,-0.01c0.442,14.121 0.077,30.092 0.074,44.355c6.941,-13.129 19.76,-31.733 28.317,-44.344Z" style="fill-rule:nonzero;"/>
    </g>
    <g transform="matrix(1,0,0,1,-92.778,-407.306)">
        <path d="M663.36,451.054l20.321,-0.021c10.365,34.925 20.204,73.587 29.621,108.882c-6.79,-0.056 -13.581,-0.001 -20.369,0.166c-1.648,-6.926 -3.269,-14.328 -5.296,-21.107c-1.432,-1.114 -1.246,-0.735 -3.512,-0.797c-8.029,0.175 -16.628,-0.016 -24.699,-0.056c-0.739,5.639 -3.691,15.507 -5.007,21.871l-20.653,0.016c3.222,-9.321 7.732,-28.061 10.384,-38.134c6.153,-23.365 13.397,-47.484 19.21,-70.82Zm0.072,70.796c3.52,-0.091 7.169,-0.238 10.678,-0.263c2.522,0.048 7.129,0.022 9.445,0.306c-1.067,-4.537 -9.298,-38.851 -10.254,-39.984c-2.971,12.743 -7.279,27.568 -9.869,39.941Z" style="fill-rule:nonzero;"/>
    </g>
    <g transform="matrix(1,0,0,1,-92.778,-407.306)">
        <path d="M496.891,449.195c23.086,-1.189 36.842,11.834 37.387,34.831l-19.15,-0.001c-0.072,-2.775 -0.547,-5.439 -1.538,-8.041c-1.437,-3.773 -3.977,-6.317 -7.687,-7.898c-3.908,-1.665 -8.547,-2.292 -12.54,-0.547c-4.088,1.787 -6.963,5.526 -8.481,9.635c-3.102,8.399 -3.219,50.687 0.743,58.431c1.865,3.643 4.853,6.683 8.864,7.82c4.371,1.238 9.745,0.741 13.629,-1.686c5.318,-3.324 6.634,-8.598 7.796,-14.336l0.984,-0.374c6.074,-0.103 12.149,-0.118 18.224,-0.048c-0.138,17.804 -10.401,31.96 -27.834,34.19c-41.025,4.686 -46.016,-22.968 -44.667,-56.304c1.174,-29.009 -2.461,-51.203 34.27,-55.672Z" style="fill-rule:nonzero;"/>
    </g>
    <g transform="matrix(1,0,0,1,-92.778,-407.306)">
        <path d="M187.104,451.068c6.366,-0.19 13.547,-0.033 19.977,-0.035l-0.014,90.936l36.018,0.07c-0.097,5.91 -0.034,11.997 -0.041,17.922l-56.032,0.013c-0.007,-36.125 -0.352,-72.827 0.092,-108.906Z" style="fill-rule:nonzero;"/>
    </g>
    <g transform="matrix(1,0,0,1,-92.778,-407.306)">
        <path d="M872.086,450.977c6.968,0.099 13.937,0.102 20.905,0.009l0.043,108.971l-21.356,0.078c0.391,-9.246 0.118,-20.134 0.116,-29.495c0.06,-15.833 0.006,-31.665 -0.162,-47.497l-16.966,-0.067c0.331,-5.602 -0.088,-12.773 0.148,-18.886c12.29,-0.099 17.752,1.707 17.272,-13.113Z" style="fill-rule:nonzero;"/>
    </g>
    <g transform="matrix(1,0,0,1,-92.778,-407.306)">
        <path d="M812.112,450.939c6.678,0.209 14.096,0.081 20.835,0.112l0.054,108.928l-18.126,-0.043c-1.789,0.123 -1.272,0.354 -2.698,-0.299c-0.604,-6.382 -0.183,-19.285 -0.179,-26.197l0.027,-50.406l-16.902,-0.022c0.545,-4.327 0.353,-14.134 0.373,-18.931c12.996,0.271 16.478,1.505 16.616,-13.142Z" style="fill-rule:nonzero;"/>
    </g>
    <g transform="matrix(1,0,0,1,-92.778,-407.306)">
        <path d="M753.66,451.053l20.446,-0.023c-0.396,11.859 -0.079,25.705 -0.082,37.741l-0.002,71.187l-18.147,-0.004c-0.695,0.025 -1.346,-0.046 -2.044,-0.093c-0.813,-1.861 -0.39,-69.193 -0.388,-76.869l-16.456,0.005l-0.003,-18.952c10.6,0.28 18.541,0.761 16.676,-12.992Z" style="fill-rule:nonzero;"/>
    </g>
    <g transform="matrix(1,0,0,1,-92.778,-407.306)">
        <path d="M424.043,451.03l20.45,0.063c-0.483,11.025 -0.034,25.581 -0.025,36.825l-0.007,72.071c-6.684,-0.145 -13.726,-0.053 -20.44,-0.075l0.022,-108.884Z" style="fill-rule:nonzero;"/>
    </g>
    <g transform="matrix(1,0,0,1,-92.778,-407.306)">
        <path d="M261.025,451.053l19.967,-0.019l0.029,108.915c-6.666,-0.05 -13.332,-0.018 -19.996,0.096l0,-108.992Z" style="fill-rule:nonzero;"/>
    </g>
</svg>
